<svg width="20" height="20" viewBox="0 0 20 20" fill="none" xmlns="http://www.w3.org/2000/svg"><path fill-rule="evenodd" clip-rule="evenodd" d="M2.381.398l8.877 8.642c.545.53.545 1.39 0 1.92l-8.877 8.642c-.545.53-1.428.53-1.972 0a1.333 1.333 0 0 1 0-1.92L8.299 10 .41 2.318a1.333 1.333 0 0 1 0-1.92 1.422 1.422 0 0 1 1.972 0z" fill="#999"/><path fill-rule="evenodd" clip-rule="evenodd" d="M17.619.398L8.742 9.04a1.333 1.333 0 0 0 0 1.92l8.877 8.642c.544.53 1.428.53 1.973 0 .544-.53.544-1.39 0-1.92L11.7 10l7.89-7.682c.545-.53.545-1.39 0-1.92a1.422 1.422 0 0 0-1.972 0z" fill="#999"/></svg>