<svg width="172" height="117" viewBox="0 0 172 117" fill="none" xmlns="http://www.w3.org/2000/svg"><path fill-rule="evenodd" clip-rule="evenodd" d="M27.327 104.845c21.642 0 25.72-18.898 25.72-34.028h32.15C135.594 70.817 135.607 0 86.803 0 73.529 0 64.979 7.992 62.69 10.777c-27.23 0-30.54 14.13-30.54 41.567v25.15c0 6.452-2.611 10.637-9.647 10.637-6.007 0-8.852-5.282-11.252-12.696C10 76.102 1.218 80.82 0 81.593 2.657 89 5.502 104.845 27.327 104.845zm30.597-63.279c8.245 0 8.945 12.316-.584 12.316-8.032 0-7.823-12.316.584-12.316zm28.881 36.907c-6.968 0-27.328-1.498-27.328-1.498v37.969l19.29.273 4.822-27.466 61.084-1.14 1.609 30.114 22.505.275S172 58.017 172 46.185c0-21.948-9.888-34.37-32.15-35.409-5.577-.26-12.875-1.293-17.682-1.539 20.95 25.317 4.281 69.236-35.363 69.236zm38.58 15.395l1.606 22.31 12.859.275-1.607-22.585h-12.858zm-40.189 21.626l12.86.273 3.213-21.899H90.017l-4.82 21.626z" fill="#FF862F"/></svg>