<svg width="25" height="25" viewBox="0 0 25 25" fill="none" xmlns="http://www.w3.org/2000/svg"><path fill-rule="evenodd" clip-rule="evenodd" d="M3.972 19.234c3.146 0 3.738-2.746 3.738-4.944h4.673c7.326 0 7.328-10.29.234-10.29-1.93 0-3.172 1.161-3.505 1.566-3.958 0-4.44 2.053-4.44 6.04v3.654c0 .937-.379 1.545-1.401 1.545-.873 0-1.287-.767-1.636-1.844-.181.097-1.458.782-1.635.894.386 1.076.8 3.379 3.972 3.379zm4.447-9.194c1.199 0 1.3 1.789-.085 1.789-1.167 0-1.137-1.79.085-1.79zm4.198 5.362c-1.013 0-3.972-.218-3.972-.218v5.517l2.804.04.7-3.99 8.879-.166.234 4.375 3.27.04S25 12.43 25 10.71c0-3.188-1.437-4.993-4.673-5.144-.81-.038-1.871-.188-2.57-.224 3.045 3.679.622 10.06-5.14 10.06zm5.607 2.237l.234 3.242 1.87.04-.235-3.282h-1.869zm-5.84 3.142l1.868.04.467-3.182h-1.635l-.7 3.142z" fill="#FF862F"/></svg>