<svg width="187" height="27" viewBox="0 0 187 27" fill="none" xmlns="http://www.w3.org/2000/svg"><g clip-path="url(#a)"><path fill-rule="evenodd" clip-rule="evenodd" d="M5.433 23.452c4.658 0 5.536-4.125 5.536-7.427h6.92c10.847 0 10.85-15.455.345-15.455-2.857 0-4.697 1.744-5.19 2.352-5.86 0-6.573 3.084-6.573 9.072v5.489c0 1.408-.562 2.321-2.076 2.321-1.293 0-1.906-1.153-2.422-2.77-.27.145-2.16 1.174-2.422 1.343.572 1.616 1.185 5.075 5.882 5.075zm6.585-13.81c1.775 0 1.926 2.687-.125 2.687-1.729 0-1.684-2.688.125-2.688zm6.217 8.054c-1.5 0-5.882-.327-5.882-.327v8.287l4.152.06 1.038-5.995 13.147-.249.346 6.572 4.844.06s.691-12.872.691-15.455c0-4.79-2.128-7.5-6.92-7.727-1.2-.057-2.77-.283-3.805-.336 4.51 5.525.921 15.11-7.611 15.11zm8.303 3.36l.346 4.87 2.768.06-.346-4.93h-2.768zm-8.65 4.72l2.768.06.692-4.78h-2.422l-1.038 4.72z" fill="#FF862F"/></g><path d="M54.79 6.078c.988 0 2.013.11 3.076.33 1.063.205 2.057.527 2.984.967l-1.276 3.65c-.395-.131-.82-.241-1.276-.329a13.902 13.902 0 0 0-2.574-.352c-.394-.03-.751-.044-1.07-.044-.365 0-.623.059-.775.176-.136.103-.205.257-.205.462 0 .205.236.381.706.528.471.132 1.071.278 1.8.44.334.073.699.16 1.093.263.41.103.82.235 1.23.396a7.2 7.2 0 0 1 1.208.616c.395.25.744.557 1.047.924.32.366.57.799.752 1.297.183.499.274 1.078.274 1.738 0 .674-.137 1.305-.41 1.891-.259.587-.699 1.1-1.322 1.54-.622.44-1.442.791-2.46 1.055-1.017.25-2.278.374-3.781.374-.395 0-.866-.022-1.412-.066a21.735 21.735 0 0 1-1.732-.22 23.785 23.785 0 0 1-1.867-.396 11.199 11.199 0 0 1-1.8-.616l1.184-3.804c.714.22 1.398.396 2.05.528.669.117 1.276.205 1.823.264.562.058 1.048.095 1.458.11.41.014.721.021.934.021.486 0 .812-.066.98-.198.181-.131.273-.293.273-.483 0-.367-.44-.645-1.322-.836-.91-.22-1.776-.44-2.596-.66a9.26 9.26 0 0 1-2.164-.857 4.262 4.262 0 0 1-1.458-1.364c-.365-.557-.547-1.29-.547-2.2 0-.703.114-1.363.342-1.979.243-.63.645-1.18 1.207-1.649.562-.47 1.298-.836 2.21-1.1.926-.278 2.065-.417 3.416-.417zM63.904 21.692c.015-1.833.015-3.658 0-5.476a328.805 328.805 0 0 1 0-5.476h5.558a328.805 328.805 0 0 0 0 5.476c.015 1.818.015 3.643 0 5.476h-5.558zM69.69 7.507c0 .719-.236 1.312-.706 1.781-.471.47-1.246.704-2.324.704-.531 0-.987-.058-1.367-.176a2.687 2.687 0 0 1-.934-.528 1.983 1.983 0 0 1-.5-.791 3.012 3.012 0 0 1-.16-.99c0-.748.228-1.349.683-1.803.456-.47 1.215-.704 2.278-.704 1.094 0 1.868.235 2.324.704.47.454.706 1.055.706 1.803zM78.051 7.353v3.387h3.053v3.299H78.05v2.485c0 .337.023.608.069.814.06.205.144.359.25.461a.915.915 0 0 0 .456.198c.182.03.402.044.66.044.107 0 .32-.014.638-.044.319-.029.668-.073 1.048-.131l.592 3.452c-.303.117-.63.22-.98.308-.333.073-.675.14-1.024.198a7.753 7.753 0 0 1-1.003.11c-.319.03-.6.044-.843.044-1.245 0-2.224-.14-2.938-.418-.714-.278-1.253-.623-1.617-1.034-.35-.425-.57-.88-.66-1.363a7.285 7.285 0 0 1-.138-1.341v-3.783h-1.503v-2.925l1.913-.55c.198-.484.395-.975.593-1.473.197-.499.387-.99.57-1.474l3.917-.264zM83.322 21.692V6.452h7.22c1.58 0 2.878.205 3.896.615 1.032.396 1.845.939 2.437 1.628a5.774 5.774 0 0 1 1.23 2.419c.243.923.365 1.898.365 2.925a10.1 10.1 0 0 1-.41 2.88 6.36 6.36 0 0 1-1.344 2.442c-.623.704-1.443 1.268-2.46 1.693-1.003.426-2.24.638-3.713.638h-7.221zm5.74-11.546v7.807h1.07c.487 0 .881-.102 1.185-.308.32-.22.562-.505.73-.857.181-.367.303-.785.364-1.254.076-.469.114-.96.114-1.473 0-.528-.038-1.027-.114-1.496a3.725 3.725 0 0 0-.41-1.253 2.09 2.09 0 0 0-.775-.836c-.334-.22-.76-.33-1.276-.33h-.888zM113.724 16.194c0 .85-.129 1.628-.388 2.331a4.57 4.57 0 0 1-1.23 1.826c-.546.498-1.252.887-2.118 1.165-.866.279-1.913.418-3.144.418-1.245 0-2.3-.14-3.166-.418-.865-.278-1.572-.667-2.118-1.165a4.69 4.69 0 0 1-1.208-1.826c-.243-.703-.364-1.48-.364-2.331 0-.836.121-1.605.364-2.31a4.509 4.509 0 0 1 1.208-1.803c.562-.498 1.275-.886 2.141-1.165.866-.279 1.913-.418 3.143-.418 1.231 0 2.278.14 3.144.418.881.278 1.595.667 2.141 1.165.547.499.949 1.1 1.207 1.804.259.704.388 1.473.388 2.309zm-5.695 0c0-.718-.084-1.239-.251-1.561-.167-.338-.478-.506-.934-.506-.455 0-.766.19-.933.572-.168.38-.251.88-.251 1.495 0 .777.083 1.334.251 1.672.167.337.478.505.933.505.456 0 .767-.168.934-.505.167-.338.251-.895.251-1.672zM129.475 17.91l.387-3.145.729-4.003h5.33c-.41 1.847-.843 3.673-1.298 5.476a468.757 468.757 0 0 0-1.299 5.454h-6.742l-.798-4.024-.387-3.013h-.182l-.342 2.99-.752 4.047h-6.697a262.6 262.6 0 0 0-1.366-5.432 162.88 162.88 0 0 1-1.344-5.498h5.444l.729 4.09.387 3.145h.137l.478-3.166.866-4.069h5.239l.843 4.024.478 3.123h.16zM142.787 11.906a7.473 7.473 0 0 1 2.118-1.1c.744-.235 1.39-.352 1.936-.352 1.397 0 2.392.352 2.984 1.056.593.689.889 1.715.889 3.079v7.103h-5.581v-6.07c0-.425-.084-.718-.251-.88-.152-.16-.402-.241-.751-.241-.137 0-.312.029-.524.088a2.113 2.113 0 0 0-.638.307v6.796h-5.604a333.2 333.2 0 0 0 0-5.476 335.872 335.872 0 0 1 0-5.498h5.148l.114 1.122.16.066zM166.48 11.488c0 .689-.129 1.341-.387 1.957a4.29 4.29 0 0 1-1.116 1.583c-.501.455-1.116.814-1.845 1.078-.729.264-1.572.396-2.529.396h-1.959v5.19h-5.74V6.452h7.335c1.184 0 2.179.131 2.984.395.805.264 1.443.623 1.913 1.078.486.454.828.99 1.025 1.605.213.616.319 1.269.319 1.958zm-7.836-1.342v2.793h.707c.425 0 .751-.117.979-.352.243-.234.364-.564.364-.99 0-.556-.136-.938-.41-1.143-.273-.205-.63-.308-1.07-.308h-.57zM167.826 21.692c.015-2.668.007-5.322-.023-7.961-.015-2.64-.008-5.293.023-7.961h5.535c.015 2.668.023 5.322.023 7.96v7.962h-5.558zM181.282 10.432c.821 0 1.663.08 2.529.242.866.147 1.686.389 2.46.726l-.957 3.035a11.691 11.691 0 0 0-1.981-.462 12.668 12.668 0 0 0-1.709-.132c-.228 0-.387.03-.478.088-.091.059-.137.154-.137.286 0 .073.129.146.387.22.259.058.57.124.934.198.456.073.957.183 1.504.33a5.53 5.53 0 0 1 1.526.615c.471.279.858.653 1.162 1.122.319.454.478 1.04.478 1.76 0 .483-.106.938-.319 1.363-.213.425-.577.799-1.093 1.121-.501.308-1.17.558-2.005.748-.835.176-1.868.264-3.098.264a17.446 17.446 0 0 1-2.528-.198 21.866 21.866 0 0 1-1.549-.286 11.573 11.573 0 0 1-1.481-.484l.911-3.166c1.261.351 2.248.564 2.962.637a21.38 21.38 0 0 0 1.571.088c.258 0 .471-.014.638-.044.167-.044.251-.124.251-.242a.274.274 0 0 0-.137-.242 1.024 1.024 0 0 0-.342-.131 3.384 3.384 0 0 0-.455-.11 21.77 21.77 0 0 1-.433-.088 54.717 54.717 0 0 1-1.663-.418 5.961 5.961 0 0 1-1.435-.594 3.197 3.197 0 0 1-1.002-.946c-.258-.396-.388-.909-.388-1.54 0-.512.099-.996.297-1.45.197-.455.524-.851.979-1.188.456-.352 1.056-.623 1.8-.814.759-.205 1.693-.308 2.801-.308z" fill="#A65CF0"/><defs><clipPath id="a"><path fill="#fff" transform="matrix(-1 0 0 1 37 0)" d="M0 0h37v27H0z"/></clipPath></defs></svg>