<svg width="41" height="28" viewBox="0 0 41 28" fill="none" xmlns="http://www.w3.org/2000/svg"><g clip-path="url(#a)"><path d="M39.816 19.85H19.902l1-2.114 16.613-.03c.562 0 1.044-.417 1.144-.994l2.3-13.366a1.24 1.24 0 0 0-.25-.986 1.177 1.177 0 0 0-.399-.318 1.135 1.135 0 0 0-.49-.116l-21.135-.073-.18-.881C18.39.41 17.901 0 17.346 0H12.18c-.313 0-.613.13-.834.359a1.25 1.25 0 0 0-.346.866c0 .325.124.637.346.867.221.23.521.358.835.358h4.21l.789 3.895 1.943 9.764-2.502 4.238a1.252 1.252 0 0 0-.1 1.277c.2.413.605.673 1.053.673h2.1a3.645 3.645 0 0 0-.688 2.142c0 1.964 1.538 3.561 3.43 3.561 1.894 0 3.432-1.597 3.432-3.561 0-.774-.248-1.527-.689-2.142h5.387a3.645 3.645 0 0 0-.689 2.142c0 1.964 1.539 3.561 3.431 3.561 1.893 0 3.431-1.597 3.431-3.561 0-.774-.247-1.527-.688-2.142h3.788c.65 0 1.181-.548 1.181-1.225a1.253 1.253 0 0 0-.35-.864 1.163 1.163 0 0 0-.834-.358zM19.176 4.27l19.256.065-1.886 10.961-15.126.028L19.176 4.27zm3.24 21.266c-.581 0-1.056-.493-1.056-1.097s.475-1.097 1.057-1.097 1.056.493 1.056 1.097c0 .29-.11.57-.309.775a1.037 1.037 0 0 1-.747.322zm10.872 0c-.581 0-1.056-.493-1.056-1.097s.475-1.097 1.056-1.097c.582 0 1.057.493 1.057 1.097 0 .29-.111.57-.31.775a1.038 1.038 0 0 1-.746.322z" fill="#A65CF0"/><ellipse cx="7" cy="12.5" rx="7" ry="7.5" fill="#FF862F"/><path d="M9.49 12.43c0 .577-.045 1.091-.136 1.544a3.348 3.348 0 0 1-.43 1.152 1.958 1.958 0 0 1-.772.723c-.319.166-.706.249-1.162.249-.573 0-1.043-.145-1.41-.435-.369-.293-.64-.713-.816-1.26-.176-.55-.264-1.207-.264-1.972 0-.772.08-1.431.24-1.978.162-.55.426-.972.79-1.265.365-.292.852-.439 1.46-.439.57 0 1.039.147 1.406.44.372.29.647.71.826 1.26.179.546.268 1.207.268 1.982zM6 12.43c0 .544.03.998.088 1.363.062.361.164.633.308.815a.715.715 0 0 0 .595.274c.25 0 .448-.09.591-.269.147-.182.25-.454.313-.815.061-.365.092-.82.092-1.367 0-.544-.03-.998-.092-1.363-.062-.364-.166-.638-.313-.82a.705.705 0 0 0-.59-.278.71.71 0 0 0-.596.278c-.144.182-.246.456-.308.82a8.805 8.805 0 0 0-.088 1.363z" fill="#fff"/></g><defs><clipPath id="a"><path fill="#fff" d="M0 0h41v28H0z"/></clipPath></defs></svg>