<svg width="14" height="14" viewBox="0 0 14 14" fill="none" xmlns="http://www.w3.org/2000/svg"><path d="M6.95 7.636l.201.604-.202-.604z" fill="#FF862F"/><path fill-rule="evenodd" clip-rule="evenodd" d="M7 0a7 7 0 1 0 0 14A7 7 0 0 0 7 0zm-.696 4.627a1.273 1.273 0 0 1 1.918 1.1c0 .299-.232.61-.671.903a3.85 3.85 0 0 1-.794.4l-.01.003a.636.636 0 1 0 .404 1.207l.004-.001.007-.003.022-.008.074-.027a5.12 5.12 0 0 0 .999-.513c.515-.343 1.237-.986 1.238-1.96a2.545 2.545 0 0 0-4.947-.848.636.636 0 1 0 1.2.422c.1-.283.297-.523.556-.675zm1.332 5.555a.636.636 0 1 1-1.272 0 .636.636 0 0 1 1.272 0z" fill="#FF862F"/></svg>